<mxfile host="app.diagrams.net" modified="2023-05-08T01:21:26.471Z" agent="Mozilla/5.0 (Windows NT 10.0; Win64; x64) AppleWebKit/537.36 (KHTML, like Gecko) Chrome/112.0.0.0 Safari/537.36" etag="xSckpxyGk4s1oq0evuzR" version="21.2.1" type="github">
  <diagram name="第 1 页" id="JrKbey2u1_kLuDOFIelw">
    <mxGraphModel dx="865" dy="1650" grid="1" gridSize="10" guides="1" tooltips="1" connect="1" arrows="1" fold="1" page="1" pageScale="1" pageWidth="827" pageHeight="1169" math="0" shadow="0">
      <root>
        <mxCell id="0" />
        <mxCell id="1" parent="0" />
        <mxCell id="Gxnw8CeNviSoY9CujKul-1" value="" style="rounded=0;whiteSpace=wrap;html=1;fillColor=none;" parent="1" vertex="1">
          <mxGeometry x="209" y="-30" width="410" height="360" as="geometry" />
        </mxCell>
        <mxCell id="Gxnw8CeNviSoY9CujKul-4" value="&lt;b&gt;DRR_CTRL&lt;/b&gt;" style="rounded=0;whiteSpace=wrap;html=1;" parent="1" vertex="1">
          <mxGeometry x="250" y="80" width="330" height="210" as="geometry" />
        </mxCell>
        <mxCell id="Gxnw8CeNviSoY9CujKul-2" value="input_reorganized" style="rounded=0;whiteSpace=wrap;html=1;" parent="1" vertex="1">
          <mxGeometry x="260" y="100" width="310" height="60" as="geometry" />
        </mxCell>
        <mxCell id="Gxnw8CeNviSoY9CujKul-3" value="output_reorganized" style="rounded=0;whiteSpace=wrap;html=1;" parent="1" vertex="1">
          <mxGeometry x="260" y="210" width="310" height="60" as="geometry" />
        </mxCell>
        <mxCell id="Gxnw8CeNviSoY9CujKul-13" style="edgeStyle=orthogonalEdgeStyle;rounded=0;orthogonalLoop=1;jettySize=auto;html=1;exitX=0.75;exitY=1;exitDx=0;exitDy=0;entryX=0.426;entryY=0;entryDx=0;entryDy=0;entryPerimeter=0;" parent="1" edge="1">
          <mxGeometry relative="1" as="geometry">
            <mxPoint x="416" y="40" as="sourcePoint" />
            <mxPoint x="416.3800000000001" y="80" as="targetPoint" />
            <Array as="points">
              <mxPoint x="416" y="60" />
              <mxPoint x="416" y="60" />
            </Array>
          </mxGeometry>
        </mxCell>
        <mxCell id="Gxnw8CeNviSoY9CujKul-5" value="&lt;b&gt;HPS_ctrl&lt;/b&gt;" style="rounded=0;whiteSpace=wrap;html=1;" parent="1" vertex="1">
          <mxGeometry x="240" y="-10" width="340" height="50" as="geometry" />
        </mxCell>
        <mxCell id="Gxnw8CeNviSoY9CujKul-10" value="&lt;b&gt;avalon&lt;/b&gt;" style="rounded=0;whiteSpace=wrap;html=1;" parent="1" vertex="1">
          <mxGeometry x="730" y="-25" width="60" height="350" as="geometry" />
        </mxCell>
        <mxCell id="Gxnw8CeNviSoY9CujKul-11" value="&lt;b&gt;avalon&lt;/b&gt;" style="rounded=0;whiteSpace=wrap;html=1;direction=south;" parent="1" vertex="1">
          <mxGeometry x="239" y="-135" width="350" height="60" as="geometry" />
        </mxCell>
        <mxCell id="Gxnw8CeNviSoY9CujKul-12" value="" style="shape=flexArrow;endArrow=classic;html=1;rounded=0;fillColor=default;exitX=1;exitY=0.5;exitDx=0;exitDy=0;" parent="1" source="Gxnw8CeNviSoY9CujKul-11" edge="1">
          <mxGeometry width="50" height="50" relative="1" as="geometry">
            <mxPoint x="414" y="-70" as="sourcePoint" />
            <mxPoint x="414.5" y="-10" as="targetPoint" />
          </mxGeometry>
        </mxCell>
        <mxCell id="Gxnw8CeNviSoY9CujKul-17" value="" style="shape=flexArrow;endArrow=classic;startArrow=classic;html=1;rounded=0;fillColor=default;" parent="1" edge="1">
          <mxGeometry width="100" height="100" relative="1" as="geometry">
            <mxPoint x="583" y="130.23" as="sourcePoint" />
            <mxPoint x="723" y="130" as="targetPoint" />
          </mxGeometry>
        </mxCell>
        <mxCell id="Gxnw8CeNviSoY9CujKul-18" value="" style="shape=flexArrow;endArrow=classic;startArrow=classic;html=1;rounded=0;fillColor=default;" parent="1" edge="1">
          <mxGeometry width="100" height="100" relative="1" as="geometry">
            <mxPoint x="585" y="239.45999999999998" as="sourcePoint" />
            <mxPoint x="725" y="239.23000000000002" as="targetPoint" />
          </mxGeometry>
        </mxCell>
        <mxCell id="u102qBGS11XwWjUROn_k-4" value="" style="edgeStyle=orthogonalEdgeStyle;rounded=0;orthogonalLoop=1;jettySize=auto;html=1;" edge="1" parent="1" source="u102qBGS11XwWjUROn_k-1" target="u102qBGS11XwWjUROn_k-3">
          <mxGeometry relative="1" as="geometry" />
        </mxCell>
        <mxCell id="u102qBGS11XwWjUROn_k-1" value="接收初始地址" style="rounded=0;whiteSpace=wrap;html=1;" vertex="1" parent="1">
          <mxGeometry x="209" y="430" width="120" height="60" as="geometry" />
        </mxCell>
        <mxCell id="u102qBGS11XwWjUROn_k-6" value="" style="edgeStyle=orthogonalEdgeStyle;rounded=0;orthogonalLoop=1;jettySize=auto;html=1;" edge="1" parent="1" source="u102qBGS11XwWjUROn_k-3" target="u102qBGS11XwWjUROn_k-5">
          <mxGeometry relative="1" as="geometry" />
        </mxCell>
        <mxCell id="u102qBGS11XwWjUROn_k-3" value="读取ddr数据" style="whiteSpace=wrap;html=1;rounded=0;" vertex="1" parent="1">
          <mxGeometry x="209" y="570" width="120" height="60" as="geometry" />
        </mxCell>
        <mxCell id="u102qBGS11XwWjUROn_k-7" style="edgeStyle=orthogonalEdgeStyle;rounded=0;orthogonalLoop=1;jettySize=auto;html=1;exitX=1;exitY=0.5;exitDx=0;exitDy=0;entryX=1;entryY=0.5;entryDx=0;entryDy=0;" edge="1" parent="1" source="u102qBGS11XwWjUROn_k-5" target="u102qBGS11XwWjUROn_k-3">
          <mxGeometry relative="1" as="geometry">
            <Array as="points">
              <mxPoint x="400" y="740" />
              <mxPoint x="400" y="600" />
            </Array>
          </mxGeometry>
        </mxCell>
        <mxCell id="u102qBGS11XwWjUROn_k-5" value="确认写入的数据地址" style="whiteSpace=wrap;html=1;rounded=0;" vertex="1" parent="1">
          <mxGeometry x="209" y="710" width="120" height="60" as="geometry" />
        </mxCell>
      </root>
    </mxGraphModel>
  </diagram>
</mxfile>
